<svg width="30" height="30" viewBox="0 0 30 30" fill="none" xmlns="http://www.w3.org/2000/svg">
<g id="Iconly/Light-Outline/Discount">
<g id="Discount">
<g id="Group 3">
<mask id="mask0_329_2101" style="mask-type:alpha" maskUnits="userSpaceOnUse" x="2" y="2" width="26" height="26">
<path id="Clip 2" fill-rule="evenodd" clip-rule="evenodd" d="M2.5 2.50024H27.5034V27.5015H2.5V2.50024Z" fill="white"/>
</mask>
<g mask="url(#mask0_329_2101)">
<path id="Fill 1" fill-rule="evenodd" clip-rule="evenodd" d="M13.681 25.0944C14.4185 25.8144 15.606 25.8056 16.3385 25.0694L17.241 24.1694C17.941 23.4706 18.9085 23.0719 19.8947 23.0719H21.1822C22.2247 23.0719 23.0722 22.2244 23.0722 21.1831V19.8969C23.0722 18.8956 23.4597 17.9544 24.1672 17.2456L25.0672 16.3444C25.4335 15.9769 25.6297 15.5006 25.6285 14.9956C25.6272 14.4919 25.4285 14.0181 25.0697 13.6606L24.1685 12.7581C23.4597 12.0444 23.0722 11.1044 23.0722 10.1031V8.81936C23.0722 7.77686 22.2247 6.92936 21.1822 6.92936H19.8972C18.896 6.92936 17.9547 6.54061 17.246 5.83686L16.3435 4.93311C15.5922 4.18936 14.3935 4.19311 13.6597 4.93186L12.761 5.83311C12.0435 6.54186 11.1022 6.92936 10.1047 6.92936H8.81846C7.77721 6.93061 6.92971 7.77811 6.92971 8.81936V10.1006C6.92971 11.1019 6.54096 12.0431 5.83596 12.7531L4.94846 13.6419C4.93971 13.6519 4.93096 13.6594 4.92221 13.6681C4.18846 14.4069 4.19221 15.6056 4.93096 16.3394L5.83346 17.2419C6.54096 17.9519 6.92971 18.8931 6.92971 19.8944V21.1831C6.92971 22.2244 7.77596 23.0719 8.81846 23.0719H10.1022C11.1047 23.0731 12.046 23.4619 12.7547 24.1681L13.656 25.0669C13.6635 25.0756 13.6722 25.0844 13.681 25.0944V25.0944ZM14.9984 27.5019C14.0397 27.5019 13.0809 27.1394 12.3472 26.4119C12.3372 26.4019 12.3272 26.3919 12.3172 26.3806L11.4297 25.4944C11.0759 25.1431 10.6034 24.9481 10.1009 24.9469H8.8184C6.74215 24.9469 5.05465 23.2581 5.05465 21.1831V19.8944C5.05465 19.3919 4.8584 18.9206 4.5059 18.5656L3.60715 17.6681C2.14715 16.2156 2.12965 13.8506 3.5634 12.3756C3.57465 12.3644 3.5859 12.3531 3.59715 12.3419L4.50715 11.4294C4.8584 11.0756 5.05465 10.6019 5.05465 10.1006V8.81939C5.05465 6.74439 6.74215 5.05564 8.81715 5.05439H10.1047C10.6059 5.05439 11.0784 4.85814 11.4372 4.50439L12.3309 3.60814C13.7922 2.13689 16.1809 2.12939 17.6547 3.59439L18.5684 4.50814C18.9222 4.85939 19.3947 5.05439 19.8972 5.05439H21.1822C23.2584 5.05439 24.9472 6.74314 24.9472 8.81939V10.1031C24.9472 10.6044 25.1422 11.0781 25.4959 11.4344L26.3934 12.3331C27.1047 13.0394 27.4997 13.9831 27.5034 14.9894C27.5072 15.9956 27.1184 16.9419 26.4097 17.6556L25.4934 18.5694C25.1422 18.9231 24.9472 19.3944 24.9472 19.8969V21.1831C24.9472 23.2581 23.2584 24.9469 21.1834 24.9469H19.8947C19.3997 24.9469 18.9159 25.1469 18.5647 25.4956L17.6672 26.3931C16.9334 27.1319 15.9659 27.5019 14.9984 27.5019V27.5019Z" fill="#3BF3A6"/>
</g>
</g>
<path id="Fill 4" fill-rule="evenodd" clip-rule="evenodd" d="M11.7873 19.1519C11.5473 19.1519 11.3073 19.0606 11.1248 18.8769C10.7585 18.5106 10.7585 17.9181 11.1248 17.5519L17.5498 11.1256C17.916 10.7594 18.5098 10.7594 18.876 11.1256C19.2423 11.4919 19.2423 12.0856 18.876 12.4519L12.4498 18.8769C12.2673 19.0606 12.0273 19.1519 11.7873 19.1519" fill="#3BF3A6"/>
<path id="Fill 6" fill-rule="evenodd" clip-rule="evenodd" d="M18.1293 19.374C17.438 19.374 16.873 18.8152 16.873 18.124C16.873 17.4327 17.4268 16.874 18.118 16.874H18.1293C18.8205 16.874 19.3793 17.4327 19.3793 18.124C19.3793 18.8152 18.8205 19.374 18.1293 19.374" fill="#3BF3A6"/>
<path id="Fill 8" fill-rule="evenodd" clip-rule="evenodd" d="M11.8793 13.124C11.188 13.124 10.623 12.5652 10.623 11.874C10.623 11.1827 11.1768 10.624 11.868 10.624H11.8793C12.5705 10.624 13.1293 11.1827 13.1293 11.874C13.1293 12.5652 12.5705 13.124 11.8793 13.124" fill="#3BF3A6"/>
</g>
</g>
</svg>
